<?xml version="1.0" standalone="no"?>
<!DOCTYPE svg PUBLIC "-//W3C//DTD SVG 20010904//EN"
 "http://www.w3.org/TR/2001/REC-SVG-20010904/DTD/svg10.dtd">
<svg version="1.0" xmlns="http://www.w3.org/2000/svg"
 width="880.000000pt" height="920.000000pt" viewBox="0 0 880.000000 920.000000"
 preserveAspectRatio="xMidYMid meet">

<g transform="translate(0.000000,920.000000) scale(0.100000,-0.100000)"
fill="#000000" stroke="none">
<path d="M8229 8652 c-144 -85 -223 -134 -509 -321 -236 -153 -710 -501 -990
-725 -154 -123 -356 -290 -370 -306 -3 -3 -48 -41 -100 -85 -52 -44 -97 -82
-100 -85 -3 -3 -39 -35 -80 -70 -41 -36 -100 -88 -130 -116 -30 -28 -102 -93
-160 -145 -237 -213 -900 -869 -1151 -1139 -166 -178 -434 -473 -504 -555 -33
-38 -107 -124 -165 -190 -156 -177 -468 -551 -626 -750 -18 -22 -71 -89 -120
-150 -145 -182 -462 -601 -659 -870 -101 -138 -88 -132 -176 -81 -41 23 -168
96 -284 161 -115 65 -235 133 -265 150 -30 18 -77 45 -105 60 -76 41 -290 162
-383 217 -45 26 -84 48 -87 48 -2 0 -54 29 -115 65 -61 36 -113 65 -115 65 -2
0 -26 13 -53 29 -27 16 -74 42 -103 59 -30 16 -146 82 -258 146 -111 64 -207
116 -212 116 -12 0 -12 -567 0 -574 5 -4 63 -68 128 -144 267 -309 1029 -1194
1338 -1553 115 -134 227 -264 250 -289 22 -25 51 -59 65 -75 14 -17 83 -97
155 -180 71 -82 159 -184 195 -226 36 -42 116 -135 179 -207 l114 -132 98 0
97 0 59 118 c32 64 61 119 65 120 5 2 8 8 8 13 0 30 418 836 642 1238 32 58
58 106 58 107 0 8 291 510 437 754 256 429 388 638 676 1070 125 187 431 630
460 665 4 6 51 69 103 140 144 196 280 377 306 407 13 15 46 57 73 93 78 103
207 266 302 383 110 134 374 450 399 477 11 11 57 65 104 120 383 451 1178
1275 1608 1667 l72 66 -2 255 -3 256 -166 -97z"/>
</g>
</svg>
